<?xml version="1.0" encoding="utf-8"?>
<!-- Generator: Adobe Illustrator 15.0.0, SVG Export Plug-In  -->
<!DOCTYPE svg PUBLIC "-//W3C//DTD SVG 1.1//EN" "http://www.w3.org/Graphics/SVG/1.1/DTD/svg11.dtd" [
	<!ENTITY ns_flows "http://ns.adobe.com/Flows/1.0/">
]>
<svg version="1.1"
	 xmlns="http://www.w3.org/2000/svg" xmlns:xlink="http://www.w3.org/1999/xlink" xmlns:a="http://ns.adobe.com/AdobeSVGViewerExtensions/3.0/"
	 x="0px" y="0px" width="21px" height="21px" viewBox="0 0 21 21" overflow="visible" enable-background="new 0 0 21 21"
	 xml:space="preserve">
<defs>
</defs>
<path d="M16.5,3h-12C3.672,3,3,3.672,3,4.5v12C3,17.328,3.672,18,4.5,18h12c0.828,0,1.5-0.672,1.5-1.5v-12C18,3.672,17.328,3,16.5,3
	z"/>
<path fill="#FFFFFF" d="M11,14.5c0,0.276-0.225,0.5-0.5,0.5h-1C9.224,15,9,14.776,9,14.5v-1C9,13.224,9.224,13,9.5,13h1
	c0.275,0,0.5,0.224,0.5,0.5V14.5z M14,9c0,0.553-0.447,1-1,1h-2v2H9v-2c0-0.531,0.484-1,1-1h2V7h-2v1H8V7c0-0.553,0.447-1,1-1h4
	c0.553,0,1,0.447,1,1V9z"/>
<rect opacity="0" fill="#4387FD" width="21" height="21"/>
</svg>
