<?xml version="1.0" encoding="utf-8"?>
<!-- Generator: Adobe Illustrator 15.0.2, SVG Export Plug-In . SVG Version: 6.00 Build 0)  -->
<!DOCTYPE svg PUBLIC "-//W3C//DTD SVG 1.1//EN" "http://www.w3.org/Graphics/SVG/1.1/DTD/svg11.dtd">
<svg version="1.1" id="Layer_1" xmlns="http://www.w3.org/2000/svg" xmlns:xlink="http://www.w3.org/1999/xlink" x="0px" y="0px"
	 width="21px" height="21px" viewBox="0 0 21 21" enable-background="new 0 0 21 21" xml:space="preserve">
<path fill="#595850" d="M10.5,10C9.672,10,9,10.672,9,11.5S9.672,13,10.5,13s1.5-0.672,1.5-1.5S11.328,10,10.5,10z M4.5,10
	C3.672,10,3,10.672,3,11.5S3.672,13,4.5,13S6,12.328,6,11.5S5.328,10,4.5,10z M16.5,10c-0.828,0-1.5,0.672-1.5,1.5
	s0.672,1.5,1.5,1.5s1.5-0.672,1.5-1.5S17.328,10,16.5,10z"/>
<rect fill="#4387FD" fill-opacity="0" width="21" height="21"/>
</svg>
