<?xml version="1.0" encoding="utf-8"?>
<!-- Generator: Adobe Illustrator 15.0.0, SVG Export Plug-In  -->
<!DOCTYPE svg PUBLIC "-//W3C//DTD SVG 1.1//EN" "http://www.w3.org/Graphics/SVG/1.1/DTD/svg11.dtd" [
	<!ENTITY ns_flows "http://ns.adobe.com/Flows/1.0/">
]>
<svg version="1.1"
	 xmlns="http://www.w3.org/2000/svg" xmlns:xlink="http://www.w3.org/1999/xlink" xmlns:a="http://ns.adobe.com/AdobeSVGViewerExtensions/3.0/"
	 x="0px" y="0px" width="21px" height="21px" viewBox="0 0 21 21" overflow="visible" enable-background="new 0 0 21 21"
	 xml:space="preserve">
<defs>
</defs>
<path d="M20,3h-0.5L18,4.5L16.5,3L15,4.5L13.5,3L12,4.5L10.5,3L9,4.5L7.5,3L6,4.5L4.5,3L3,4.5L1.5,3H1v14.8
	C1,18.463,1.537,19,2.2,19h16.6c0.663,0,1.2-0.537,1.2-1.2V3z M7,17H3v-1h4V17z M7,15H3v-1h4V15z M7,13H3v-1h4V13z M7,11H3v-1h4V11z
	 M13,17H8v-7h5V17z M18,17h-4v-1h4V17z M18,15h-4v-1h4V15z M18,13h-4v-1h4V13z M18,11h-4v-1h4V11z M18,9H3V7h15V9z"/>
<rect opacity="0" fill="#4387FD" width="21" height="21"/>
</svg>
