<?xml version="1.0" encoding="utf-8"?>
<!-- Generator: Adobe Illustrator 15.0.0, SVG Export Plug-In  -->
<!DOCTYPE svg PUBLIC "-//W3C//DTD SVG 1.1//EN" "http://www.w3.org/Graphics/SVG/1.1/DTD/svg11.dtd" [
	<!ENTITY ns_flows "http://ns.adobe.com/Flows/1.0/">
]>
<svg version="1.1"
	 xmlns="http://www.w3.org/2000/svg" xmlns:xlink="http://www.w3.org/1999/xlink" xmlns:a="http://ns.adobe.com/AdobeSVGViewerExtensions/3.0/"
	 x="0px" y="0px" width="21px" height="21px" viewBox="0 0 21 21" overflow="visible" enable-background="new 0 0 21 21"
	 xml:space="preserve">
<defs>
</defs>
<path d="M3,14h10v-1H3V14z M12.5,4c-1.11,0-2.107,0.396-2.97,1H3v1h5.389C8.096,6.315,7.834,6.651,7.598,7H3v1h4
	c0.168,0.338,0.375,0.672,0.598,1H3v1h5.389c0.346,0.374,0.73,0.708,1.148,1H3v1h9.5c0.566,0,1.1-0.113,1.606-0.292
	C15.856,11.09,17.225,9.551,18,8C17,6,15.023,4,12.5,4z M12.5,11.1c-1.715,0-3.1-1.387-3.1-3.1s1.385-3.1,3.1-3.1
	c1.714,0,3.1,1.387,3.1,3.1S14.214,11.1,12.5,11.1z M3,16h6v-1H3V16z M12.5,6.5c-0.829,0-1.5,0.674-1.5,1.502
	C11,8.829,11.671,9.5,12.5,9.5c0.828,0,1.5-0.671,1.5-1.498C14,7.174,13.328,6.5,12.5,6.5z"/>
<rect opacity="0.15" fill="none" width="21" height="21"/>
</svg>
