<?xml version="1.0" encoding="utf-8"?>
<!-- Generator: Adobe Illustrator 15.0.0, SVG Export Plug-In  -->
<!DOCTYPE svg PUBLIC "-//W3C//DTD SVG 1.1//EN" "http://www.w3.org/Graphics/SVG/1.1/DTD/svg11.dtd" [
	<!ENTITY ns_flows "http://ns.adobe.com/Flows/1.0/">
]>
<svg version="1.1"
	 xmlns="http://www.w3.org/2000/svg" xmlns:xlink="http://www.w3.org/1999/xlink" xmlns:a="http://ns.adobe.com/AdobeSVGViewerExtensions/3.0/"
	 x="0px" y="0px" width="21px" height="21px" viewBox="0 0 21 21" overflow="visible" enable-background="new 0 0 21 21"
	 xml:space="preserve">
<defs>
</defs>
<path d="M15.5,3h-11C3.672,3,3,3.672,3,4.5v11C3,16.328,3.672,17,4.5,17h11c0.828,0,1.5-0.672,1.5-1.5v-11C17,3.672,16.328,3,15.5,3
	z M10,4.75c1.242,0,2.25,1.008,2.25,2.25S11.242,9.25,10,9.25S7.75,8.242,7.75,7S8.758,4.75,10,4.75z M14,14H6v-1.5
	c0-0.9,2-1.6,4-1.6s4,0.699,4,1.6V14z"/>
<rect opacity="0" fill="#4387FD" width="21" height="21"/>
</svg>
